<svg width="325" height="66" viewBox="0 0 325 66" fill="none" xmlns="http://www.w3.org/2000/svg">
<path d="M1 8.52966C1 7.4139 1.01315 6.68427 1.24942 6.07658C1.45312 5.55262 1.87006 5.02047 2.96622 4.50263C4.10025 3.9669 5.88739 3.48405 8.71362 3.07197C11.5258 2.66195 15.2994 2.33072 20.3649 2.06483C40.6434 1.00041 81.2297 1 162.5 1C243.77 1 284.357 1.00041 304.635 2.06483C309.701 2.33072 313.474 2.66195 316.286 3.07197C319.113 3.48405 320.9 3.9669 322.034 4.50263C323.13 5.02047 323.547 5.55262 323.751 6.07658C323.987 6.68427 324 7.4139 324 8.52966C324 16.0521 319.692 23.3568 311.588 30.1326C303.491 36.9037 291.713 43.0464 277.071 48.2246C247.797 58.5777 207.29 65 162.5 65C117.71 65 77.2025 58.5777 47.9286 48.2246C33.2871 43.0464 21.5095 36.9037 13.4115 30.1326C5.30811 23.3568 1 16.0521 1 8.52966Z" fill="#FFD9ED" stroke="black" stroke-width="2"/>
</svg>
