<svg width="443" height="88" viewBox="0 0 443 88" fill="none" xmlns="http://www.w3.org/2000/svg">
<path d="M72.5002 65.4999C44.6834 64.0912 11.6235 92.8556 2.43719 79.3399C-6.74911 65.8243 33.1347 18.2594 72.5 20.9999C98.6355 22.8193 95.8773 27.8729 121.872 31.4873C151.794 35.6476 152.154 4.9158 181.747 11.4999C208.739 17.5053 209.564 35.1326 236.871 31.4873C262.538 28.0609 251.55 7.6449 277 2.5C304.789 -3.11775 299.877 31.0806 327.793 26.3733C352.041 22.2847 343.995 2.49985 368.5 2.49999C396.695 2.50016 461.67 87.3719 434.555 85.9149C407.441 84.458 402.793 55.6916 376 60.7103C353.719 64.8839 350.331 84.4642 327.793 85.9151C303.928 87.4514 312.901 65.7413 289 65.4999C263.279 65.2401 262.535 83.914 236.871 85.9151C209.337 88.062 209.22 63.7321 181.747 60.7103C152.61 57.5054 151.052 88.5565 121.872 85.9151C95.6934 83.5454 98.7343 66.8285 72.5002 65.4999Z" fill="#DAFFCD" stroke="#1E1E1E" stroke-width="2"/>
</svg>
