<svg width="619" height="180" viewBox="0 0 619 180" fill="none" xmlns="http://www.w3.org/2000/svg">
<path d="M618 90C618 101.927 609.681 113.504 594.111 124.208C578.573 134.89 556.024 144.551 528.07 152.679C472.176 168.933 394.899 179 309.5 179C224.101 179 146.824 168.933 90.9297 152.679C62.9757 144.551 40.4265 134.89 24.8886 124.208C9.31914 113.504 1 101.927 1 90C1 78.0728 9.31914 66.4961 24.8886 55.792C40.4265 45.1095 62.9757 35.4494 90.9297 27.3206C146.824 11.0669 224.101 1 309.5 1C394.899 1 472.176 11.0669 528.07 27.3206C556.024 35.4494 578.573 45.1095 594.111 55.792C609.681 66.4961 618 78.0728 618 90Z" fill="white" stroke="black" stroke-width="2"/>
<path d="M521 90C521 97.779 515.501 105.41 505.014 112.527C494.561 119.622 479.371 126.051 460.509 131.465C422.8 142.291 370.648 149 313 149C255.352 149 203.2 142.291 165.491 131.465C146.629 126.051 131.438 119.622 120.986 112.527C110.499 105.41 105 97.779 105 90C105 82.221 110.499 74.5904 120.986 67.4727C131.438 60.3781 146.629 53.9495 165.491 48.5348C203.2 37.7092 255.352 31 313 31C370.648 31 422.8 37.7092 460.509 48.5348C479.371 53.9495 494.561 60.3781 505.014 67.4727C515.501 74.5904 521 82.221 521 90Z" fill="white" stroke="black" stroke-width="2"/>
</svg>
