<svg width="325" height="166" viewBox="0 0 325 166" fill="none" xmlns="http://www.w3.org/2000/svg">
<path d="M324 144.547C324 147.251 323.998 149.513 323.694 151.475C323.395 153.411 322.812 154.979 321.696 156.305C319.428 159 314.718 160.985 304.557 162.327C284.329 164.997 243.801 165 162.5 165C81.1993 165 40.6712 164.997 20.4434 162.327C10.2821 160.985 5.57177 159 3.30416 156.305C2.18804 154.979 1.60485 153.411 1.30564 151.475C1.0024 149.513 1 147.251 1 144.547C1 65.3749 73.1927 1 162.5 1C251.807 1 324 65.3749 324 144.547Z" fill="#FFD9ED" stroke="black" stroke-width="2"/>
</svg>
